<svg xmlns="http://www.w3.org/2000/svg" xmlns:xlink="http://www.w3.org/1999/xlink" version="1.1" id="Layer_1" x="0px" y="0px" viewBox="0 0 100 100" enable-background="new 0 0 100 100" xml:space="preserve" height="100px" width="100px">
<path d="M59.4,68.7c7.7-9.1,16.9-23.5,16.9-32.9C76.3,21.3,64.5,9.5,50,9.5S23.7,21.3,23.7,35.8c0,9.4,9.3,23.8,16.9,32.9  c-9.9,1.6-16.9,5.7-16.9,10.5c0,6.2,11.8,11.3,26.3,11.3s26.3-5.1,26.3-11.3C76.3,74.5,69.3,70.4,59.4,68.7z M50,23.5  c6.3,0,11.3,5.1,11.3,11.3S56.3,46.2,50,46.2s-11.3-5.1-11.3-11.3S43.7,23.5,50,23.5z M50,84.9c-11.2,0-20.3-3.8-20.3-8.5  c0-3.3,4.5-6.1,11-7.6c4.2,4.9,7.9,8.3,9.3,8.3s5.1-3.3,9.3-8.3c6.5,1.4,11,4.3,11,7.6C70.3,81.1,61.2,84.9,50,84.9z"/>
</svg>