<?xml version="1.0" encoding="utf-8"?>
<!-- Generator: Adobe Illustrator 16.0.0, SVG Export Plug-In . SVG Version: 6.00 Build 0)  -->
<!DOCTYPE svg PUBLIC "-//W3C//DTD SVG 1.1//EN" "http://www.w3.org/Graphics/SVG/1.1/DTD/svg11.dtd">
<svg version="1.1" id="Layer_1" xmlns="http://www.w3.org/2000/svg" xmlns:xlink="http://www.w3.org/1999/xlink" x="0px" y="0px"
	 width="100px" height="100px" viewBox="0 0 100 100" enable-background="new 0 0 100 100" xml:space="preserve">
<g>
	<g>
		<path fill="#FFFFFF" d="M50.005,65.08c9.721,0,22.528-22.063,22.528-35.072c0-7.608-1.504-13.713-4.462-18.145
			c-3.784-5.688-9.859-8.567-18.066-8.567c-8.207,0-14.293,2.879-18.078,8.567c-2.958,4.432-4.453,10.536-4.453,18.145
			C27.475,43.017,40.274,65.08,50.005,65.08z M30.722,30.008c0-6.96,1.314-12.459,3.905-16.342
			c3.147-4.722,8.326-7.122,15.377-7.122s12.222,2.4,15.369,7.122c2.589,3.883,3.903,9.383,3.903,16.342
			c0,5.599-2.709,13.477-7.072,20.568c-4.202,6.832-8.993,11.246-12.2,11.246c-3.218,0-8.008-4.414-12.211-11.246
			C33.433,43.485,30.722,35.607,30.722,30.008z"/>
		<path fill="#FFFFFF" d="M50.005,65.556c-9.93,0-23.006-22.359-23.007-35.547c0-7.709,1.525-13.903,4.533-18.409
			C35.407,5.774,41.623,2.82,50.005,2.82c8.375,0,14.587,2.954,18.462,8.779c3.015,4.515,4.542,10.708,4.542,18.409
			C73.009,43.197,59.935,65.556,50.005,65.556z M50.005,3.772c-8.043,0-13.992,2.811-17.682,8.354
			c-2.901,4.348-4.373,10.364-4.373,17.881c0.001,12.835,12.536,34.595,22.055,34.595s22.052-21.76,22.052-34.595
			c0-7.509-1.474-13.525-4.382-17.881C63.986,6.583,58.041,3.772,50.005,3.772z M50.005,62.299c-3.428,0-8.262-4.396-12.616-11.473
			c-4.406-7.163-7.143-15.14-7.143-20.818c0-7.056,1.341-12.643,3.985-16.606c3.244-4.867,8.551-7.334,15.773-7.334
			c7.216,0,12.521,2.467,15.766,7.334c2.643,3.964,3.982,9.551,3.982,16.606c0,5.68-2.736,13.658-7.143,20.818
			C58.258,57.902,53.428,62.299,50.005,62.299z M50.005,7.02c-6.884,0-11.925,2.325-14.981,6.91
			c-2.538,3.804-3.825,9.214-3.825,16.078c0,5.512,2.683,13.297,7.001,20.32c4.056,6.59,8.8,11.018,11.806,11.018
			c3.001,0,7.741-4.428,11.794-11.018c4.319-7.02,7.002-14.806,7.002-20.32c0-6.864-1.286-12.273-3.823-16.078
			C61.921,9.345,56.883,7.02,50.005,7.02z"/>
	</g>
	<g>
		<path fill="#FFFFFF" d="M81.994,63.007c-7.328-3.148-14.519-5.209-14.819-5.299c-0.867-0.249-1.771,0.249-2.012,1.116
			c-0.248,0.865,0.25,1.763,1.115,2.012c11.664,3.326,28.088,10.24,28.088,15.16v19.271H5.643V75.996
			c0-4.92,16.415-11.824,28.086-15.16c0.857-0.25,1.355-1.146,1.116-2.012c-0.249-0.867-1.155-1.365-2.011-1.116
			c-0.31,0.09-7.5,2.152-14.83,5.299C7.496,67.51,2.386,71.751,2.386,75.996V96.9c0,0.896,0.729,1.623,1.623,1.623h91.98
			c0.896,0,1.624-0.727,1.624-1.623V75.996C97.613,71.751,92.505,67.51,81.994,63.007z"/>
		<path fill="#FFFFFF" d="M95.989,99H4.009c-1.158,0-2.099-0.942-2.099-2.1V75.996c0-4.448,5.203-8.841,15.907-13.427
			c7.092-3.045,14.101-5.093,14.876-5.316c1.131-0.331,2.298,0.352,2.609,1.44c0.308,1.114-0.339,2.279-1.44,2.6
			C20.519,65.107,6.119,71.813,6.119,75.996V94.79h87.771V75.996c0-4.194-14.4-10.897-27.743-14.703
			c-1.114-0.319-1.762-1.486-1.442-2.6c0.301-1.086,1.501-1.759,2.601-1.442c1.871,0.546,8.293,2.49,14.876,5.319
			c10.704,4.585,15.908,8.977,15.908,13.426V96.9C98.09,98.058,97.147,99,95.989,99z M33.283,58.12
			c-0.106,0-0.212,0.015-0.316,0.046c-0.78,0.224-7.736,2.257-14.775,5.278c-10.315,4.42-15.33,8.525-15.33,12.552V96.9
			c0,0.632,0.515,1.147,1.147,1.147h91.98c0.633,0,1.148-0.516,1.148-1.147V75.996c0-4.026-5.015-8.132-15.331-12.551
			c-6.534-2.809-12.91-4.738-14.708-5.263c-0.161-0.048-0.27-0.063-0.377-0.063c-0.513,0-0.965,0.341-1.101,0.831
			c-0.176,0.613,0.179,1.252,0.788,1.427c10.993,3.135,28.434,10.146,28.434,15.618v19.746H5.167V75.996
			c0-5.457,17.439-12.476,28.432-15.618c0.602-0.176,0.957-0.815,0.788-1.428C34.247,58.463,33.793,58.12,33.283,58.12z"/>
	</g>
	<g>
		<path fill="#FFFFFF" d="M34.737,66.9c-0.41-0.797-1.386-1.124-2.182-0.726c-0.807,0.407-1.136,1.384-0.729,2.18
			c0.19,0.378,4.782,9.263,18.178,9.263c13.387,0,17.986-8.884,18.175-9.263c0.399-0.796,0.071-1.772-0.725-2.18
			c-0.809-0.398-1.783-0.071-2.183,0.726c-0.04,0.081-3.864,7.471-15.268,7.471C38.7,74.371,34.885,67.199,34.737,66.9z"/>
		<path fill="#FFFFFF" d="M50.005,78.094c-13.672,0-18.409-9.137-18.604-9.526c-0.251-0.49-0.295-1.055-0.122-1.584
			c0.176-0.539,0.553-0.978,1.062-1.234c1.012-0.508,2.305-0.069,2.82,0.935c0.039,0.078,3.69,7.211,14.844,7.211
			c11.043,0,14.806-7.135,14.842-7.208c0.503-1.005,1.798-1.441,2.818-0.938c1.036,0.528,1.455,1.793,0.94,2.819
			C68.412,68.955,63.708,78.094,50.005,78.094z M33.273,66.481c-0.177,0-0.347,0.04-0.504,0.119
			c-0.28,0.142-0.487,0.382-0.583,0.678c-0.094,0.287-0.07,0.593,0.066,0.859c0.186,0.371,4.663,9.004,17.754,9.004
			c13.119,0,17.565-8.632,17.749-8.999c0.281-0.563,0.05-1.255-0.516-1.544c-0.54-0.267-1.266-0.034-1.54,0.515
			c-0.037,0.076-3.958,7.734-15.693,7.734c-11.739,0-15.656-7.658-15.695-7.736C34.112,66.725,33.713,66.481,33.273,66.481z"/>
	</g>
</g>
</svg>
