<svg xmlns="http://www.w3.org/2000/svg" xmlns:xlink="http://www.w3.org/1999/xlink" version="1.1" width="96" height="96" viewBox="0 0 96 96">
<path d="M28.444 55.36c-15.82 0-26.444-43.232-26.444-52.22 0-1.1 0.896-2 2-2h12c1.104 0 2 0.9 2 2s-0.896 2-2 2h-9.9c1.144 12.584 11.668 46.22 22.34 46.22 10.708 0 21.5-30.344 22.388-46.22h-6.828c-1.104 0-2-0.9-2-2s0.896-2 2-2h8.892c1.1 0 2 0.9 2 2 0 13.42-10.392 52.22-26.448 52.22z" fill="#000000"/>
	<path d="M82.228 36.916c-6.5 0-11.78-5.284-11.78-11.776s5.28-11.776 11.78-11.776c6.492 0 11.772 5.284 11.772 11.776s-5.284 11.776-11.772 11.776zM82.228 17.36c-4.288 0-7.78 3.488-7.78 7.776s3.492 7.776 7.78 7.776c4.284 0 7.772-3.488 7.772-7.776s-3.488-7.776-7.772-7.776z" fill="#000000"/>
	<path d="M54 94.86c-16.544 0-30-13.624-30-30.384v-11.336c0-1.1 0.896-2 2-2s2 0.9 2 2v11.336c0 14.548 11.664 26.384 26 26.384 14.58 0 26-11.196 26-25.5v-28.22c0-1.1 0.9-2 2-2s2 0.9 2 2v28.22c0 16.548-13.176 29.5-30 29.5z" fill="#000000"/>
</svg>