<svg xmlns="http://www.w3.org/2000/svg" xmlns:xlink="http://www.w3.org/1999/xlink" version="1.1" id="Layer_1" x="0px" y="0px" width="98.75px" height="98.75px" viewBox="0 0 98.75 98.75" enable-background="new 0 0 98.75 98.75" xml:space="preserve">
<g>
	<path d="M80.234,58.995c0-17.68-13.842-32.062-30.859-32.062c-17.016,0-30.86,14.382-30.86,32.062   c0,10.564,4.964,19.92,12.571,25.767l-7.139,9.886c-0.818,1.134-0.597,2.742,0.494,3.591c0.444,0.35,0.965,0.512,1.479,0.512   c0.751,0,1.492-0.353,1.978-1.023l7.39-10.242c4.229,2.268,9.01,3.574,14.088,3.574c5.075,0,9.856-1.307,14.086-3.574l7.394,10.242   c0.484,0.671,1.225,1.023,1.974,1.023c0.516,0,1.037-0.162,1.479-0.512c1.095-0.849,1.315-2.457,0.495-3.591l-7.138-9.886   C75.272,78.915,80.234,69.559,80.234,58.995z M49.375,85.926c-14.293,0-25.922-12.084-25.922-26.932   c0-14.85,11.629-26.932,25.922-26.932c14.297,0,25.922,12.082,25.922,26.932C75.297,73.842,63.672,85.926,49.375,85.926z"/>
	<path d="M33.2,16.958c-2.771-4.191-7.337-6.695-12.216-6.695c-8.168,0-14.812,6.902-14.812,15.39c0,4.044,1.509,7.869,4.248,10.771   l1.584,1.675L34.48,18.898L33.2,16.958z M12.555,30.986c-0.941-1.594-1.446-3.428-1.446-5.333c0-5.658,4.431-10.262,9.875-10.262   c2.492,0,4.861,0.983,6.665,2.701L12.555,30.986z"/>
	<path d="M77.768,10.263c-4.88,0-9.448,2.504-12.22,6.695l-1.277,1.94L86.747,38.1l1.584-1.674   c2.739-2.902,4.247-6.727,4.247-10.772C92.578,17.166,85.935,10.263,77.768,10.263z M86.195,30.987L71.103,18.093   c1.801-1.718,4.17-2.701,6.665-2.701c5.443,0,9.873,4.604,9.873,10.262C87.641,27.56,87.137,29.392,86.195,30.987z"/>
	<path d="M14.812,1.283C14.812,0.574,14.259,0,13.578,0C6.092,0,0,5.178,0,11.543c0,0.708,0.552,1.282,1.234,1.282   c0.682,0,1.235-0.574,1.235-1.282c0-4.951,4.984-8.979,11.109-8.979C14.259,2.565,14.812,1.992,14.812,1.283z"/>
	<path d="M7.406,11.543c0-2.121,2.215-3.848,4.938-3.848c0.682,0,1.234-0.573,1.234-1.283c0-0.708-0.553-1.282-1.234-1.282   c-4.084,0-7.407,2.876-7.407,6.413c0,0.708,0.554,1.282,1.235,1.282S7.406,12.251,7.406,11.543z"/>
	<path d="M85.172,0c-0.681,0-1.234,0.574-1.234,1.283c0,0.709,0.554,1.282,1.234,1.282c6.127,0,11.111,4.027,11.111,8.979   c0,0.708,0.552,1.282,1.232,1.282c0.683,0,1.234-0.574,1.234-1.282C98.75,5.178,92.659,0,85.172,0z"/>
	<path d="M86.406,5.131c-0.682,0-1.234,0.574-1.234,1.282c0,0.709,0.553,1.283,1.234,1.283c2.72,0,4.938,1.727,4.938,3.848   c0,0.708,0.551,1.282,1.234,1.282c0.68,0,1.234-0.574,1.234-1.282C93.812,8.007,90.493,5.131,86.406,5.131z"/>
</g>
</svg>